<?xml version="1.0" encoding="UTF-8" standalone="no"?>
<svg width="94px" height="14px" viewBox="0 0 94 14" version="1.1" xmlns="http://www.w3.org/2000/svg" xmlns:xlink="http://www.w3.org/1999/xlink">
    <!-- Generator: Sketch 3.8.3 (29802) - http://www.bohemiancoding.com/sketch -->
    <title>Combined Shape</title>
    <desc>Created with Sketch.</desc>
    <defs></defs>
    <g id="Welcome" stroke="none" stroke-width="1" fill="none" fill-rule="evenodd">
        <g id="首页" transform="translate(-160.000000, -43.000000)" fill="#FFFFFF">
            <g id="head">
                <g id="LOGO" transform="translate(160.000000, 43.000000)">
                    <path d="M91.1457267,10.3218149 L70.3835005,10.3218149 L70.3835005,12.7115402 C70.3835005,13.4001437 69.8252679,13.9583763 69.1366645,13.9583763 C68.448936,13.9583763 67.8907034,13.4001437 67.8907034,12.7115402 L67.8907034,5.95675134 C67.8907034,2.67210398 70.5628699,-6.25136715e-05 73.8475173,-6.25136715e-05 L87.680835,-6.25136715e-05 C90.9654823,-6.25136715e-05 93.6385238,2.67210398 93.6385238,5.95675134 L93.6385238,12.7115402 C93.6385238,13.4001437 93.0802912,13.9583763 92.3916877,13.9583763 C91.7030843,13.9583763 91.1457267,13.4001437 91.1457267,12.7115402 L91.1457267,10.3218149 Z M70.3835005,7.79489389 L91.1457267,7.79489389 L91.1457267,5.95675134 C91.1457267,4.04668603 89.5909003,2.49273459 87.680835,2.49273459 L73.8475173,2.49273459 C71.9374519,2.49273459 70.3835005,4.04668603 70.3835005,5.95675134 L70.3835005,7.79489389 Z M19.7906065,13.9579388 L5.95728882,13.9579388 C2.67264147,13.9579388 -0.0004,11.2857723 -0.0004,8.00112495 L-0.0004,1.24633604 C-0.0004,0.557732555 0.557832555,-0.0005 1.24643604,-0.0005 C1.93503952,-0.0005 2.4923971,0.557732555 2.4923971,1.24633604 L2.4923971,8.00112495 C2.4923971,9.91119026 4.04722351,11.4651417 5.95728882,11.4651417 L19.7906065,11.4651417 C21.7006718,11.4651417 23.2546233,9.91119026 23.2546233,8.00112495 L23.2546233,1.24633604 C23.2546233,0.557732555 23.8128558,-0.0005 24.5014593,-0.0005 C25.1891878,-0.0005 25.7474204,0.557732555 25.7474204,1.24633604 L25.7474204,8.00112495 C25.7474204,11.2857723 23.0752539,13.9579388 19.7906065,13.9579388 Z M58.4260117,13.9995 C57.7286585,13.9995 57.1625512,13.4342677 57.1625512,12.7360395 L57.1625512,2.65897939 C57.1625512,2.63798005 57.1625512,2.58635666 57.1013031,2.54873284 C57.0663042,2.52685852 57.0365551,2.52510857 57.0120559,2.52948344 L49.5756632,7.48882846 C49.5319146,7.51770256 49.486416,7.54395174 49.4382925,7.567576 C47.8117184,8.3804256 45.8675291,8.3804256 44.24008,7.567576 C44.1928315,7.54395174 44.1464579,7.51770256 44.1027093,7.48882846 L36.6663167,2.52948344 C36.6418174,2.52510857 36.6120684,2.52685852 36.5779444,2.54873284 C36.5158214,2.58635666 36.5158214,2.63798005 36.5158214,2.65897939 L36.5158214,12.7360395 C36.5158214,13.4342677 35.950589,13.9995 35.2523609,13.9995 C34.5550076,13.9995 33.9897753,13.4342677 33.9897753,12.7360395 L33.9897753,2.65897939 C33.9897753,1.73238335 34.4605106,0.888034733 35.247986,0.399799991 C36.0363364,-0.0875597794 37.0023062,-0.132183385 37.8326552,0.281678682 C37.8799037,0.305302944 37.9254023,0.332427096 37.969151,0.361301194 L45.4335427,5.33902064 C46.319015,5.75550762 47.3593575,5.75550762 48.2448298,5.33902064 L55.7092216,0.361301194 C55.7529702,0.332427096 55.7984688,0.305302944 55.8465923,0.281678682 C56.6769413,-0.132183385 57.6411612,-0.0875597794 58.4303865,0.399799991 C59.2187369,0.888034733 59.6894722,1.73238335 59.6894722,2.65897939 L59.6894722,12.7360395 C59.6894722,13.4342677 59.1233649,13.9995 58.4260117,13.9995 Z" id="Combined-Shape"></path>
                </g>
            </g>
        </g>
    </g>
</svg>